/* XPM */ 
const char * arrow_right_green_xpm[] = {
"16 16 82 1",
" 	c None",
"!	c black",
"#	c #00A600",
"$	c #34B621",
"%	c #3ABF25",
"&	c #2EA522",
"'	c #B1FF74",
"(	c #3FC229",
")	c #239413",
"*	c #43AB2B",
"+	c #40AB2B",
",	c #44AD2E",
"-	c #45B12F",
".	c #44AF2E",
"0	c #58BD41",
"1	c #A7FA7A",
"2	c #A1FF67",
"3	c #4CCB31",
"4	c #269316",
"5	c #B4F58C",
"6	c #98EA6A",
"7	c #9FEE73",
"8	c #A3F177",
"9	c #A5F37B",
":	c #A7F47E",
";	c #96F267",
"<	c #8EF559",
"=	c #A0FF67",
">	c #55D437",
"?	c #00B400",
"@	c #228F14",
"A	c #91E761",
"B	c #70DB3B",
"C	c #77DF43",
"D	c #7AE245",
"E	c #7DE548",
"F	c #80E84C",
"G	c #85EB51",
"H	c #88EF55",
"I	c #8DF35A",
"J	c #54C235",
"K	c #05B004",
"L	c #228E14",
"M	c #85E151",
"N	c #73DA40",
"O	c #76DD43",
"P	c #79E046",
"Q	c #7CE249",
"R	c #80E64C",
"S	c #83E950",
"T	c #85EC52",
"U	c #8CF357",
"V	c #89DF56",
"W	c #49AB2C",
"X	c #02AD00",
"Y	c #249016",
"Z	c #7EE244",
"[	c #78DD42",
"]	c #7BE046",
"^	c #7EE349",
"_	c #81E64B",
"`	c #81E74D",
"a	c #86EE51",
"b	c #80D54F",
"c	c #3CA523",
"d	c #00AF00",
"e	c #1B810D",
"f	c #2A8F16",
"g	c #278E15",
"h	c #288F15",
"i	c #288E17",
"j	c #278E17",
"k	c #379D20",
"l	c #85EB4F",
"m	c #7ACE49",
"n	c #34A01D",
"o	c #209411",
"p	c #7DCC46",
"q	c #2B9C18",
"r	c #249B13",
"s	c #289A15",
"t	c #008800",
"                ",
"                ",
"        #       ",
"        $%      ",
"        &'(     ",
"  )*+,-.0123    ",
"  456789:;<=>?  ",
"  @ABCDEFGHI=JK ",
"  LMNOPQRSTUVWX ",
"  YZ[]^__`abcd  ",
"  efghijklmn    ",
"        opq     ",
"        rs      ",
"        t       ",
"                ",
"                "};

