/* XPM */ 
static char * book_xpm[] = {
"16 16 130 2",
"  	c None",
"! 	c black",
"# 	c #9191D0",
"$ 	c #8282C6",
"% 	c #9DA1D6",
"& 	c #D1D1ED",
"' 	c #9FA0D9",
"( 	c #A6A7D5",
") 	c #8383C6",
"* 	c #C9C9ED",
"+ 	c #9598D1",
", 	c #C0C1EC",
"- 	c #BDBEE4",
". 	c #BCBEE1",
"0 	c #A8A9D6",
"1 	c #8182C7",
"2 	c #B5B6E8",
"3 	c #C5C5F4",
"4 	c #C3C0F2",
"5 	c #C1C0F0",
"6 	c #BCBBED",
"7 	c #AFAFE5",
"8 	c #A3A5D4",
"9 	c #8383C8",
": 	c #B2B3E6",
"; 	c #BFBEF0",
"< 	c #B7B7EB",
"= 	c #B1B2E8",
"> 	c #AEAFE5",
"? 	c #AAABE1",
"@ 	c #A3A2DC",
"A 	c #9898D6",
"B 	c #8E8ECF",
"C 	c #8486C8",
"D 	c #AFB0E4",
"E 	c #B0B0E6",
"F 	c #A9A8E2",
"G 	c #A2A2DD",
"H 	c #9C9CD9",
"I 	c #9595D4",
"J 	c #8F8FCE",
"K 	c #8787CB",
"L 	c #7372BE",
"M 	c #6C6DB8",
"N 	c #D1D1EF",
"O 	c #A8A9E1",
"P 	c #ABABE2",
"Q 	c #A6A4DF",
"R 	c #A09FDC",
"S 	c #9B9BD8",
"T 	c #9798D4",
"U 	c #9291D1",
"V 	c #8A8ACC",
"W 	c #8483C8",
"X 	c #7473BF",
"Y 	c #6A6BB8",
"Z 	c #AFB1C6",
"[ 	c #A8AAD3",
"] 	c #8E8FCC",
"^ 	c #9FA1DD",
"_ 	c #9B9AD8",
"` 	c #9794D6",
"a 	c #9391D3",
"b 	c #918FD2",
"c 	c #8E8CD0",
"d 	c #8A8ACE",
"e 	c #8988CD",
"f 	c #8282C8",
"g 	c #7776BF",
"h 	c #C9CCC7",
"i 	c #DCE3DF",
"j 	c #7F81C1",
"k 	c #A8ABD2",
"l 	c #8183C2",
"m 	c #8C90CA",
"n 	c #8C8DCE",
"o 	c #8A8BCC",
"p 	c #8987CC",
"q 	c #8786C9",
"r 	c #8582CA",
"s 	c #8581C9",
"t 	c #807FC6",
"u 	c #7979C2",
"v 	c #6B6CB9",
"w 	c #EEF9E9",
"x 	c #7B7EBC",
"y 	c #7476B8",
"z 	c #DFE8E4",
"{ 	c #B9BFCF",
"| 	c #797BBB",
"} 	c #7F7FC1",
"~ 	c #8383C7",
" !	c #817FC6",
"!!	c #7C7DC5",
"#!	c #7B7AC3",
"$!	c #6C6DB9",
"%!	c #7375B8",
"&!	c #6867B6",
"'!	c #7C7EA6",
"(!	c #9093BA",
")!	c #E7F1E6",
"*!	c #E1EBE4",
"+!	c #8E91BF",
",!	c #8385C2",
"-!	c #8080C9",
".!	c #7F7DC8",
"0!	c #7D7DC6",
"1!	c #7D7BC2",
"2!	c #6D6EBA",
"3!	c #797BBC",
"4!	c #797BB8",
"5!	c #BEC5D3",
"6!	c #C0C7D7",
"7!	c #8183C1",
"8!	c #7D7DC3",
"9!	c #7675C2",
":!	c #7B7DBB",
";!	c #9094C1",
"<!	c #DDE6E2",
"=!	c #9499C4",
">!	c #7475B9",
"?!	c #C1C3C0",
"@!	c #7B7DBE",
"A!	c #7A7DBB",
"B!	c #B4BAD1",
"C!	c #EBF6E8",
"D!	c #7678BA",
"E!	c #8B8FC2",
"F!	c #9799CC",
"G!	c #7E80BD",
"              # $               ",
"            % & ' ( )           ",
"          % * + , - . 0 1       ",
"        % * + 2 3 4 5 6 7 8 9   ",
"      % * + : ; < = > ? @ A B C ",
"    % * + D < E F G H I J K L M ",
"  % N + O P Q R S T U V W X Y Z ",
"% [ ] ^ _ ` a b c d e f g Y h i ",
"j k l m n o p q r s t u v h w x ",
"y z { | } ) f ~  !!!#!$!h w %!&!",
"'!(!)!*!+!,!-!.!0!1!2!h w %!&!  ",
"  3!4!5!w 6!7!8!9!2!h w %!&!    ",
"      :!;!<!*!=!>!?!w %!&!      ",
"        @!A!B!C!w w %!&!        ",
"            D!B!<!E!&!          ",
"              F!G!&!            "};