/* XPM */ 
static char * bookopen_xpm[] = {
"16 16 122 2",
"  	c None",
"! 	c black",
"# 	c #93ADDB",
"$ 	c #8DA3D5",
"% 	c white",
"& 	c #B1AFE2",
"' 	c #8590C9",
"( 	c #FFFEFF",
") 	c #E5EAF3",
"* 	c #92AEDB",
"+ 	c #A7B9D9",
", 	c #9EACC7",
"- 	c #8EA3CA",
". 	c #90A7CF",
"0 	c #9D9DD4",
"1 	c #8189C6",
"2 	c #FEFEFF",
"3 	c #E7EBF0",
"4 	c #AFC3E5",
"5 	c #ABBADC",
"6 	c #A1AECA",
"7 	c #ECF0F6",
"8 	c #7591C4",
"9 	c #9696CF",
": 	c #7F84C2",
"; 	c #FEFFFF",
"< 	c #E8EBF0",
"= 	c #C1CEE2",
"> 	c #A9BADC",
"? 	c #B3C4E1",
"@ 	c #DEE3E9",
"A 	c #F3F5F7",
"B 	c #718BB9",
"C 	c #9D9BD9",
"D 	c #ACA9E2",
"E 	c #8D8DC8",
"F 	c #7D81C0",
"G 	c #FFFDFF",
"H 	c #D5DAE3",
"I 	c #819BC8",
"J 	c #BBCADF",
"K 	c #6A80A8",
"L 	c #DFE1EB",
"M 	c #9B98D7",
"N 	c #9895D5",
"O 	c #8789C4",
"P 	c #7B7EBD",
"Q 	c #7D97C2",
"R 	c #667CA3",
"S 	c #E1E6EC",
"T 	c #908DD0",
"U 	c #8285C1",
"V 	c #797CBD",
"W 	c #6C86AF",
"X 	c #647A9E",
"Y 	c #E5E8EF",
"Z 	c #9896D5",
"[ 	c #8C89CD",
"] 	c #767BB5",
"^ 	c #787BBA",
"_ 	c #687FA8",
"` 	c #607797",
"a 	c #E7EAEF",
"b 	c #9593D4",
"c 	c #8784C9",
"d 	c #6972A5",
"e 	c #787ABA",
"f 	c #627CA1",
"g 	c #607697",
"h 	c #8F8DCF",
"i 	c #7C7AC2",
"j 	c #465879",
"k 	c #6F73B3",
"l 	c #9495C8",
"m 	c #607A9F",
"n 	c #E1E5EB",
"o 	c #B5C2D7",
"p 	c #667B9B",
"q 	c #CED4DF",
"r 	c #E0E6EC",
"s 	c #8A87CB",
"t 	c #7575BD",
"u 	c #7476B8",
"v 	c #9A9BCB",
"w 	c #5E7798",
"x 	c #C2D1E5",
"y 	c #C6CED9",
"z 	c #8091AC",
"{ 	c #CBD2DD",
"| 	c #DCE1E9",
"} 	c #DFE3EA",
"~ 	c #8180C5",
" !	c #6E6EB7",
"!!	c #6E839F",
"#!	c #AFBACA",
"$!	c #C3CCD7",
"%!	c #DEE2E9",
"&!	c #D9DDE6",
"'!	c #787ABF",
"(!	c #6568AE",
")!	c #47597B",
"*!	c #3D516D",
"+!	c #32435B",
",!	c #6767B5",
"-!	c #6867B6",
".!	c #6F6FBB",
"0!	c #7172BD",
"1!	c #7A76C1",
"2!	c #8381C7",
"3!	c #7C7DC2",
"4!	c #5F6C9B",
"5!	c #435774",
"6!	c #3A4D68",
"7!	c #364864",
"8!	c #394C69",
"9!	c #394E6B",
":!	c #3B506C",
";!	c #3D516C",
"<!	c #405271",
"=!	c #485A7B",
">!	c #516282",
"?!	c #5A6C8D",
"      #                         ",
"    $ % #                       ",
"  & ' ( ) *       + , - .       ",
"  0 1 2 3 4   5 6 - 7 % 8       ",
"  9 : ; < = > ? @ A % % B C D   ",
"  E F G < H I J @ A % % K L M N ",
"  O P % < H Q J @ A % % R S M T ",
"  U V % < H W J @ A % % X Y Z [ ",
"  ] ^ % < H _ J @ A % % ` a b c ",
"  d e % < H f J @ A % % g < h i ",
"  j k l < H m J @ n o p q r s t ",
"    j u v H w x y p z { | } ~  !",
"      j u H w g !!#!$!H %!&!'!(!",
"        )!u *!+!,!-!.!0!1!2!3!4!",
"          5!6!7!8!9!:!;!<!=!>!?!",
"                                "};