/* XPM */ 
static char * closetabpressed_xpm[] = {
"13 13 61 1",
" 	c None",
"!	c black",
"#	c white",
"$	c #977167",
"%	c #6B220F",
"&	c #722410",
"'	c #7B2711",
"(	c #8A2B14",
")	c #8C2C14",
"*	c #952F15",
"+	c #9A3116",
",	c #9F3217",
"-	c #C7806E",
".	c #6D2310",
"0	c #912D14",
"1	c #9D3016",
"2	c #A73317",
"3	c #AE3619",
"4	c #B4381A",
"5	c #B83A1B",
"6	c #BB3B1B",
"7	c #BB3C1B",
"8	c #BC3C1B",
"9	c #762511",
":	c #9C3016",
";	c #E29D89",
"<	c #B53719",
"=	c #B9391A",
">	c #BB3A1B",
"?	c #BE3D1C",
"@	c #BF3D1C",
"A	c #7E2812",
"B	c #A63317",
"C	c #BC3A1B",
"D	c #C03E1D",
"E	c #882B13",
"F	c #B6381A",
"G	c #C2401E",
"H	c #C2401D",
"I	c #8D2D14",
"J	c #BA391A",
"K	c #BC3B1B",
"L	c #C7441F",
"M	c #C74520",
"N	c #C6441F",
"O	c #C3411E",
"P	c #962F15",
"Q	c #B93A1B",
"R	c #CC4A22",
"S	c #CA4721",
"T	c #C5431F",
"U	c #C74420",
"V	c #9E3217",
"W	c #CB4922",
"X	c #CD4A22",
"Y	c #A13317",
"Z	c #C94721",
"[	c #CC4922",
"]	c #CB4921",
"^	c #C84620",
"_	c #DA8872",
" ########### ",
"#$%&'()*+,,-#",
"#.0123456788#",
"#9:;;<=>;;?@#",
"#AB;;;C;;;D@#",
"#E3F;;;;;GHD#",
"#I4JK;;;LMNO#",
"#PQ6;;;;;RST#",
"#+7;;;U;;;RN#",
"#V8;;OMW;;XM#",
"#Y8?DHNZ[X]N#",
"#-8@@DOTN^N_#",
" ########### "};