/* XPM */ 
static char * closetabactive_xpm[] = {
"13 13 87 1",
" 	c None",
"!	c black",
"#	c #FBFCFF",
"$	c white",
"%	c #FFBFB7",
"&	c #FFA196",
"'	c #FF9184",
"(	c #FF8A7C",
")	c #FF8475",
"*	c #FF8071",
"+	c #FF7D6E",
",	c #FF7767",
"-	c #FF6F5E",
".	c #FD6250",
"0	c #EF9186",
"1	c #FFA59A",
"2	c #FFB5AC",
"3	c #FF998D",
"4	c #FF9285",
"5	c #FF8C7F",
"6	c #FF8779",
"7	c #FF8171",
"8	c #FD6958",
"9	c #E15242",
":	c #FF9588",
";	c #FFA69B",
"<	c #FF8577",
"=	c #FF7B6C",
">	c #FF7262",
"?	c #FD6553",
"@	c #E15545",
"A	c #FF7464",
"B	c #FD6452",
"C	c #E25747",
"D	c #FF8273",
"E	c #FF8F82",
"F	c #FF8B7D",
"G	c #FF6B54",
"H	c #FD6C56",
"I	c #E55B49",
"J	c #FF7869",
"K	c #FF8677",
"L	c #FF8272",
"M	c #FF8165",
"N	c #FF7D60",
"O	c #FE785D",
"P	c #E8614C",
"Q	c #FF6F5F",
"R	c #FF8172",
"S	c #FF8E6B",
"T	c #FE8262",
"U	c #EC654C",
"V	c #FF6554",
"W	c #FF7565",
"X	c #FF967C",
"Y	c #FE8560",
"Z	c #F06448",
"[	c #FF5D4B",
"]	c #FF6B5A",
"^	c #FF846F",
"_	c #FF9177",
"`	c #FF9B7A",
"a	c #FE7F58",
"b	c #EE5B3E",
"c	c #FB523F",
"d	c #FC5E4C",
"e	c #FC6756",
"f	c #FD6B59",
"g	c #FD7560",
"h	c #FD8167",
"i	c #FE896A",
"j	c #FE8966",
"k	c #FE815B",
"l	c #FD704C",
"m	c #E95135",
"n	c #FBFDFF",
"o	c #EE8A7F",
"p	c #DE4837",
"q	c #E04E3D",
"r	c #E0503F",
"s	c #E35542",
"t	c #E55B46",
"u	c #EB5F46",
"v	c #EE6247",
"w	c #EE5D41",
"x	c #E95237",
"y	c #E7897B",
" #$$$$$$$$$# ",
"#%&'()*+,-.0#",
"$12134567,89$",
"$:;$$<=>$$?@$",
"$(3$$$A$$$BC$",
"$DEF$$$$$GHI$",
"$JKKL$$$MNOP$",
"$Q+R$$$$$STU$",
"$VW$$$X$$$YZ$",
"$[]$$^_`$$ab$",
"$cdefghijklm$",
"nopqrstuvwxy#",
" n$$$$$$$$$# "};