/* XPM */ 
static char * closetab_xpm[] = {
"13 13 94 2",
"  	c None",
"! 	c black",
"# 	c #E0EAFC",
"$ 	c white",
"% 	c #E0E8FB",
"& 	c #F3B6A7",
"' 	c #ED937D",
"( 	c #E98066",
") 	c #E8785D",
"* 	c #E77256",
"+ 	c #E76F53",
", 	c #E66D50",
"- 	c #E56748",
". 	c #E35F3E",
"0 	c #DF512D",
"1 	c #DB8671",
"2 	c #EE9782",
"3 	c #F0A896",
"4 	c #EC947D",
"5 	c #EA866D",
"6 	c #E97F66",
"7 	c #E87A5F",
"8 	c #E8775C",
"9 	c #E77154",
": 	c #E56849",
"; 	c #E15937",
"< 	c #C24222",
"= 	c #EA836A",
"> 	c #ED957E",
"? 	c #E66F55",
"@ 	c #E5674A",
"A 	c #E46040",
"B 	c #E05431",
"C 	c #C24525",
"D 	c #EA866C",
"E 	c #E45E3E",
"F 	c #E0512D",
"G 	c #C34626",
"H 	c #E77054",
"I 	c #E87C62",
"J 	c #E8755C",
"K 	c #E24C23",
"L 	c #E15028",
"M 	c #C64423",
"N 	c #E5684B",
"O 	c #E87359",
"P 	c #E77258",
"Q 	c #E66C4F",
"R 	c #E55124",
"S 	c #E54E1F",
"T 	c #E34E22",
"U 	c #C5421E",
"V 	c #E66D51",
"W 	c #E8501C",
"X 	c #E54C1A",
"Y 	c #C93E17",
"Z 	c #E25431",
"[ 	c #E46546",
"] 	c #E8653B",
"^ 	c #E64711",
"_ 	c #CA380D",
"` 	c #E04B26",
"a 	c #E35B39",
"b 	c #E6633E",
"c 	c #E76035",
"d 	c #E95C2B",
"e 	c #E64109",
"f 	c #C93104",
"g 	c #DB4019",
"h 	c #DE4D29",
"i 	c #E05734",
"j 	c #E15734",
"k 	c #E15731",
"l 	c #E3552A",
"m 	c #E55223",
"n 	c #E64C18",
"o 	c #E6440D",
"p 	c #E13A04",
"q 	c #C22B01",
"r 	c #E0ECFE",
"s 	c #D97F68",
"t 	c #BD3615",
"u 	c #C03D1C",
"v 	c #C03E1D",
"w 	c #C23D1B",
"x 	c #C33D18",
"y 	c #C93B12",
"z 	c #C9370D",
"{ 	c #C83206",
"| 	c #C32C01",
"} 	c #CE765F",
"~ 	c #E0E9FD",
" !	c #E0ECFF",
"!!	c #E0EAFE",
"  # $ $ $ $ $ $ $ $ $ %   ",
"# & ' ( ) * + , - . 0 1 % ",
"$ 2 3 4 5 6 7 8 9 : ; < $ ",
"$ = > $ $ ? @ A $ $ B C $ ",
"$ ) D $ $ $ E $ $ $ F G $ ",
"$ H I J $ $ $ $ $ K L M $ ",
"$ N O P Q $ $ $ R S T U $ ",
"$ . V H $ $ $ $ $ W X Y $ ",
"$ Z [ $ $ $ ] $ $ $ ^ _ $ ",
"$ ` a $ $ b c d $ $ e f $ ",
"$ g h i j k l m n o p q $ ",
"r s t u v w x y z { | } ~ ",
"   !$ $ $ $ $ $ $ $ $ !!  "};