/* XPM */ 
static char * collapsed_xpm[] = {
"16 16 43 1",
" 	c None",
"!	c black",
"#	c #E4E8EF",
"$	c #9EADC3",
"%	c #9DACC2",
"&	c #9CABC0",
"'	c #99A8BE",
"(	c #98A7BB",
")	c #96A4BA",
"*	c #94A3B8",
"+	c #C7CCD4",
",	c #9EAEC4",
"-	c white",
".	c #FCFDFE",
"0	c #F9FAFD",
"1	c #F5F7FC",
"2	c #F0F4FB",
"3	c #EBF0F9",
"4	c #E5ECF8",
"5	c #E0E8F6",
"6	c #DAE3F4",
"7	c #354963",
"8	c #9DACC3",
"9	c #C0CDE1",
":	c #D4DFF3",
";	c #AFC0D9",
"<	c #9AA8BE",
"=	c #CFDBF1",
">	c #ACBED9",
"?	c #97A6BC",
"@	c #C9D7F0",
"A	c #A9BCD8",
"B	c #95A5B9",
"C	c #C4D3EE",
"D	c #A7BAD7",
"E	c #94A4B8",
"F	c #BFD0ED",
"G	c #A5B9D7",
"H	c #BBCDEC",
"I	c #A3B7D6",
"J	c #C2CFE4",
"K	c #B7C5DD",
"L	c #A2B6D6",
"                ",
"                ",
"  #$%&'()***+   ",
"  ,-.01234567   ",
"  8.012345697   ",
"  &0123756:;7   ",
"  <123476:=>7   ",
"  ?2377777@A7   ",
"  B34567=@CD7   ",
"  E456:7@CFG7   ",
"  E56:=@CFHI7   ",
"  E6JK>ADGIL7   ",
"  +777777777+   ",
"                ",
"                ",
"                "};