/* XPM */ 
static char * fileclosepressed_xpm[] = {
"16 16 51 1",
" 	c None",
"!	c black",
"#	c #6C2129",
"$	c #6B2028",
"%	c #AB5659",
"&	c #CF7575",
"'	c #691F27",
"(	c #CE6F6F",
")	c #AC5656",
"*	c #944444",
"+	c #671E25",
",	c #CD6868",
"-	c #934040",
".	c #E6C8C8",
"0	c #A45B5B",
"1	c #AB5050",
"2	c #651D24",
"3	c #CB5E5E",
"4	c #A94949",
"5	c #A35656",
"6	c #A45757",
"7	c #631B22",
"8	c #C95454",
"9	c #A84141",
":	c #A25252",
";	c #601920",
"<	c #A92525",
"=	c #911D1D",
">	c #943A3A",
"?	c #5D181F",
"@	c #8F1D1D",
"A	c #933A3A",
"B	c #5B161D",
"C	c #AA2626",
"D	c #901D1D",
"E	c #943B3B",
"F	c #58141B",
"G	c #AD2A2A",
"H	c #801A1A",
"I	c #953D3D",
"J	c #942121",
"K	c #56131A",
"L	c #B12F2F",
"M	c #952424",
"N	c #821D1D",
"O	c #541218",
"P	c #B53434",
"Q	c #521017",
"R	c #9C3E40",
"S	c #C75858",
"T	c #500F16",
"                ",
"                ",
"  ############  ",
" $%&&&&&&&&&&%$ ",
" '()**)(()**)(' ",
" +,-..0110..-,+ ",
" 2345..66..5432 ",
" 7889:....:9887 ",
" ;<<<=>..>=<<<; ",
" ?<<@A....A@<<? ",
" BCDA..EE..ADCB ",
" FGH..IJJI..HGF ",
" KLMNNMLLMNNMLK ",
" OPPPPPPPPPPPPO ",
" QRSSSSSSSSSSRQ ",
"  TTTTTTTTTTTT  "};

