/* XPM */ 
static char * fileclosehighlight_xpm[] = {
"14 14 52 1",
" 	c None",
"!	c black",
"#	c #A63944",
"$	c #A43742",
"%	c #DE8286",
"&	c #FFADAD",
"'	c #A13540",
"(	c #FEA8A8",
")	c #9E333E",
"*	c #FCA1A1",
"+	c #CF7C7C",
",	c #B06262",
"-	c #C77575",
".	c #E68F8F",
"0	c #9A303B",
"1	c #FA9393",
"2	c #AF5A5A",
"3	c white",
"4	c #E7CDCD",
"5	c #C66B6B",
"6	c #962D38",
"7	c #F78484",
"8	c #CB6666",
"9	c #D5A6A6",
":	c #912A35",
";	c #D63E3E",
"<	c #D13C3C",
"=	c #B23030",
">	c #CB9090",
"?	c #8D2731",
"@	c #C53737",
"A	c #AB2D2D",
"B	c #89242E",
"C	c #D64040",
"D	c #AB2F2F",
"E	c #E0BEBE",
"F	c #84212B",
"G	c #D94646",
"H	c #9A2B2B",
"I	c #CB9292",
"J	c #B43636",
"K	c #801E28",
"L	c #DC4E4E",
"M	c #B63C3C",
"N	c #9C3030",
"O	c #D74C4C",
"P	c #7C1B25",
"Q	c #E05757",
"R	c #791922",
"S	c #C76164",
"T	c #F48A8A",
"U	c #761620",
" ############ ",
"$%&&&&&&&&&&%$",
"'(((((((((((('",
")**+,-..-,+**)",
"01123455432110",
"67789399398776",
":;;<=>33>=<;;:",
"?;;@A>33>A@;;?",
"BCCDE3>>3EDCCB",
"FGGH3IJJI3HGGF",
"KLLMNMOOMNMLLK",
"PQQQQQQQQQQQQP",
"RSTTTTTTTTTTSR",
" UUUUUUUUUUUU "};

