/* XPM */ 
static char * fileclosecenterred_xpm[] = {
"16 16 48 1",
" 	c None",
"!	c black",
"#	c #A63944",
"$	c #A43742",
"%	c #DE8286",
"&	c #FFADAD",
"'	c #A13540",
"(	c #FEA8A8",
")	c #D18282",
"*	c #B16767",
"+	c #9E333E",
",	c #FCA1A1",
"-	c #B06262",
".	c white",
"0	c #C08181",
"1	c #CF7C7C",
"2	c #9A303B",
"3	c #FA9393",
"4	c #CE7171",
"5	c #BF7B7B",
"6	c #962D38",
"7	c #F78484",
"8	c #CB6666",
"9	c #BD7474",
":	c #912A35",
";	c #D63E3E",
"<	c #B23030",
"=	c #AD5151",
">	c #8D2731",
"?	c #89242E",
"@	c #D64040",
"A	c #B23131",
"B	c #AD5252",
"C	c #84212B",
"D	c #D94646",
"E	c #9A2B2B",
"F	c #AE5555",
"G	c #B43636",
"H	c #801E28",
"I	c #DC4E4E",
"J	c #B63C3C",
"K	c #9C3030",
"L	c #7C1B25",
"M	c #E05757",
"N	c #791922",
"O	c #C76164",
"P	c #F48A8A",
"Q	c #761620",
"                ",
"  ############  ",
" $%&&&&&&&&&&%$ ",
" '()**)(()**)(' ",
" +,-..0110..-,+ ",
" 2345..55..5432 ",
" 67789....98776 ",
" :;;;<=..=<;;;: ",
" >;;<=....=<;;> ",
" ?@AB..BB..BA@? ",
" CDE..FGGF..EDC ",
" HIJKKJIIJKKJIH ",
" LMMMMMMMMMMMML ",
" NOPPPPPPPPPPON ",
"  QQQQQQQQQQQQ  ",
"                "};

