/* XPM */ 
static char * flag_xpm[] = {
"16 16 48 1",
" 	c None",
"!	c black",
"#	c #576794",
"$	c #6580C3",
"%	c #3D60B0",
"&	c #5674BF",
"'	c #485988",
"(	c #9BB7E8",
")	c #7594DB",
"*	c #5271C2",
"+	c #5D83D4",
",	c #95B6F5",
"-	c #6B88D4",
".	c #597ACB",
"0	c #4B6BBC",
"1	c #3B60AD",
"2	c #566F9E",
"3	c #4F6498",
"4	c #9EBFF9",
"5	c #8CAFF3",
"6	c #6F96E2",
"7	c #8DADF1",
"8	c #719CF3",
"9	c #6B8DD8",
":	c #31599E",
";	c #425485",
"<	c #93B4F1",
"=	c #89AEF6",
">	c #7FA3F0",
"?	c #7198EC",
"@	c #4D7EE1",
"A	c #345EA7",
"B	c #465E8E",
"C	c #554B70",
"D	c #6B98F7",
"E	c #5987E2",
"F	c #375DA2",
"G	c #2F57A3",
"H	c #3B4E80",
"I	c #658ACC",
"J	c #325B9F",
"K	c #3E4B7B",
"L	c #374676",
"M	c #264279",
"N	c #244079",
"O	c #233F77",
"P	c #213D76",
"Q	c #1D3972",
"                ",
"                ",
"                ",
"   #$  %&       ",
"   '()*+,-.01   ",
"   23456789:    ",
"    ;<=>?@A     ",
"    BCDEFG      ",
"     HIJ        ",
"     KL         ",
"      MN        ",
"      OP        ",
"       Q        ",
"                ",
"                ",
"                "};


