/* XPM */ 
static char * help_xpm[] = {
"16 16 122 2",
"  	c None",
"! 	c black",
"# 	c #C5D3F3",
"$ 	c #A3BAEA",
"% 	c #88A4DF",
"& 	c #829EDA",
"' 	c #95ACDC",
"( 	c #B5C4E5",
") 	c #D2DEF8",
"* 	c #A9BFEE",
"+ 	c #9FBAE9",
", 	c #E0EBFA",
"- 	c #F1F4FB",
". 	c #F0F3FA",
"0 	c #E0EBF9",
"1 	c #8DA9D8",
"2 	c #889FD0",
"3 	c #BAC7E2",
"4 	c #AAC0EF",
"5 	c #ECF5FE",
"6 	c #C0D0FF",
"7 	c #80A8FF",
"8 	c #5088FF",
"9 	c #C0D0F0",
": 	c #DEEFFE",
"; 	c #7F95C6",
"< 	c #B5C1DC",
"= 	c #EDF6FE",
"> 	c #A0C0FF",
"? 	c #4078FF",
"@ 	c #A0B8FF",
"A 	c #F0F8FF",
"B 	c white",
"C 	c #E0F0FF",
"D 	c #7098FF",
"E 	c #A0B8F0",
"F 	c #DFEFFE",
"G 	c #728BBC",
"H 	c #C5D4F4",
"I 	c #B6CFEE",
"J 	c #B0C8FF",
"K 	c #6090FF",
"L 	c #4078F0",
"M 	c #B0C8F0",
"N 	c #9FB8D6",
"O 	c #99A9CB",
"P 	c #A5BBEB",
"Q 	c #E6F0FC",
"R 	c #4070FF",
"S 	c #90B0FF",
"T 	c #3070FF",
"U 	c #2068F0",
"V 	c #7090F0",
"W 	c #5080F0",
"X 	c #6088D0",
"Y 	c #DADEF3",
"Z 	c #617AAD",
"[ 	c #8BA7E2",
"] 	c #5080FF",
"^ 	c #3068FF",
"_ 	c #2068FF",
"` 	c #6090F0",
"a 	c #C0D8F0",
"b 	c #2050C0",
"c 	c #2058C0",
"d 	c #E8ECF3",
"e 	c #365593",
"f 	c #85A1DE",
"g 	c #F0F3FB",
"h 	c #2060F0",
"i 	c #5088F0",
"j 	c #B0C0F0",
"k 	c #1050B0",
"l 	c #2058B0",
"m 	c #E8EBF2",
"n 	c #32508F",
"o 	c #99AEDF",
"p 	c #E1ECF9",
"q 	c #7098F0",
"r 	c #2058E0",
"s 	c #90A8F0",
"t 	c #1050D0",
"u 	c #1050C0",
"v 	c #5078C0",
"w 	c #D8DCE4",
"x 	c #546DA0",
"y 	c #B7C6E7",
"z 	c #B8D0EC",
"{ 	c #1058D0",
"| 	c #5080E0",
"} 	c #80A8E0",
"~ 	c #1048B0",
" !	c #A0B8E0",
"!!	c #ADB8D5",
"#!	c #8A9BBD",
"$!	c #8BA2D3",
"%!	c #DBECFD",
"&!	c #90A8E0",
"'!	c #80A0D0",
"(!	c #D9EAEC",
")!	c #536C9F",
"*!	c #BDC9E4",
"+!	c #8299C9",
",!	c #DEEEFE",
"-!	c #5080D0",
".!	c #DBE4ED",
"0!	c #556DA0",
"1!	c #9EACC8",
"2!	c #B7C3DF",
"3!	c #768EBF",
"4!	c #A0B9D7",
"5!	c #CFD5E1",
"6!	c #E9ECF3",
"7!	c #E8EBF3",
"8!	c #546C9F",
"9!	c #9FACC8",
":!	c #9CACCD",
";!	c #647DAF",
"<!	c #3A5897",
"=!	c #335291",
">!	c #556EA2",
"?!	c #8B9CBE",
"                                ",
"          # $ % & ' (           ",
"      ) * + , - . 0 1 2 3       ",
"    ) 4 5 6 7 8 8 7 9 : ; <     ",
"    * = > ? @ A B C D E F G     ",
"  H I 6 ? D B J K J A L M N O   ",
"  P Q 7 R 8 S T U V B W X Y Z   ",
"  [ - ] T ^ ^ _ ` A a b c d e   ",
"  f g ? ^ U h i B j c k l m n   ",
"  o p q h r r s B t u k v w x   ",
"  y z M r { t | } u ~ ~  !!!#!  ",
"    $!%!&!u u &!B ~ ~ '!(!)!    ",
"    *!+!,! !-!c c -! !.!0!1!    ",
"      2!3!4!5!6!7!w !!8!9!      ",
"          :!;!<!=!>!?!          ",
"                                "};