/* XPM */ 
static char * mygdb_xpm[] = {
"16 16 116 2",
"  	c None",
"! 	c black",
"# 	c #525252",
"$ 	c #515151",
"% 	c #505050",
"& 	c #545454",
"' 	c #535353",
"( 	c #5B5B5B",
") 	c #585858",
"* 	c #595959",
"+ 	c #373737",
", 	c #222222",
"- 	c #474747",
". 	c #404040",
"0 	c #3E3E3E",
"1 	c #424242",
"2 	c #232323",
"3 	c #393939",
"4 	c #040404",
"5 	c #141414",
"6 	c #1F1F1F",
"7 	c #2C2C2C",
"8 	c #2B2B2B",
"9 	c #1C1C1C",
": 	c #0E0E0E",
"; 	c #020202",
"< 	c #A92120",
"= 	c #521B1A",
"> 	c #2F0908",
"? 	c #351D1C",
"@ 	c #3A2727",
"A 	c #3A2726",
"B 	c #341C1B",
"C 	c #2D0706",
"D 	c #531B1A",
"E 	c #AA2321",
"F 	c #DD9E9E",
"G 	c #C89493",
"H 	c #EA9391",
"I 	c #E66E6C",
"J 	c #D62D2A",
"K 	c #DB2D2A",
"L 	c #834444",
"M 	c #EAB7B6",
"N 	c #DE9B9A",
"O 	c #D47D7C",
"P 	c #E46966",
"Q 	c #D52B28",
"R 	c #DA2B28",
"S 	c #854545",
"T 	c #232222",
"U 	c #A45F5F",
"V 	c #E7AEAE",
"W 	c #D08887",
"X 	c #7A3F3E",
"Y 	c #DF5553",
"Z 	c #D0211E",
"[ 	c #D5211E",
"] 	c #252424",
"^ 	c #B86C6C",
"_ 	c #E3A5A4",
"` 	c #E18786",
"a 	c #DE6664",
"b 	c #D84341",
"c 	c #CB1715",
"d 	c #D01715",
"e 	c #BA6E6E",
"f 	c #2F2F2F",
"g 	c #A86666",
"h 	c #B3807F",
"i 	c #D97675",
"j 	c #D65352",
"k 	c #C9302D",
"l 	c #C40F0C",
"m 	c #C90F0C",
"n 	c #303030",
"o 	c #242323",
"p 	c #A05E5E",
"q 	c #D89B9A",
"r 	c #D26968",
"s 	c #CC413F",
"t 	c #681110",
"u 	c #B50605",
"v 	c #BA0605",
"w 	c #A05D5D",
"x 	c #945353",
"y 	c #D79797",
"z 	c #7E3F3E",
"{ 	c #BE3230",
"| 	c #BD1210",
"} 	c #B70201",
"~ 	c #BC0201",
" !	c #985252",
"!!	c #3E3535",
"#!	c #BD5F5F",
"$!	c #AE6060",
"%!	c #C53E3D",
"&!	c #B81211",
"'!	c #B10403",
"(!	c #B60403",
")!	c #433838",
"*!	c #824F4F",
"+!	c #D05B5B",
",!	c #D95959",
"-!	c #A12D2C",
".!	c #B51817",
"0!	c #B91717",
"1!	c #8C5252",
"2!	c #BD3232",
"3!	c #922D2D",
"4!	c #BB2524",
"5!	c #BE2424",
"6!	c #8D5151",
"7!	c #883B3B",
"8!	c #7A1515",
"9!	c #7D1515",
"            # $ $ %             ",
"          & ' ( ) % *           ",
"      + , - . . 0 + 1 2 3       ",
"        4 5 6 7 8 9 : ;         ",
"      < = > ? @ A B C D E       ",
"      F G H I J K I H G F       ",
"    L M N O P Q R P O N M S     ",
"  T U V W X Y Z [ Y X W V U ]   ",
"    ^ _ ` a b c d b a ` _ e     ",
"  f g h i j k l m k j i h g n   ",
"  o p q r s t u v t s r q w 2   ",
"    x y z { | } ~ | { z y  !    ",
"    !!#!$!%!&!'!(!&!%!$!#!)!    ",
"    2 *!+!,!-!.!0!-!,!+!*!,     ",
"        1!2!3!4!5!3!2!6!        ",
"            7!8!9!7!            "};