/* XPM */ 
static char * page_white_c_xpm[] = {
"16 16 78 1",
" 	c None",
"!	c black",
"#	c #E3E3E3",
"$	c #CCCCCC",
"%	c #C9C9C9",
"&	c #DFDFDF",
"'	c #F8F8F8",
"(	c #FBFBFB",
")	c #FCFCFC",
"*	c #C2C2C2",
"+	c #F4F4F4",
",	c #F5F5F5",
"-	c #F1F1F1",
".	c #EFEFEF",
"0	c #E9E9E9",
"1	c #E7E7E7",
"2	c #F7F7F7",
"3	c #F9F9F9",
"4	c #F3F3F3",
"5	c #F0F0F0",
"6	c #EAEAEA",
"7	c #F6F6F6",
"8	c #C5C5C5",
"9	c #E7EEF9",
":	c #8AA7D5",
";	c #8EB3E9",
"<	c #8EB3E8",
"=	c #A7BFEB",
">	c #C9D7F0",
"?	c #F2F2F2",
"@	c #EBEBEB",
"A	c #DCE7F8",
"B	c #8BB3EA",
"C	c #94B9EC",
"D	c #97B7EA",
"E	c #94B4E9",
"F	c #8BB1E8",
"G	c #89AAE7",
"H	c #ECECEC",
"I	c #E6E6E6",
"J	c #94B8EB",
"K	c #99BBEC",
"L	c #81A0D4",
"M	c #A4BAEA",
"N	c #77A2E4",
"O	c #EFF2F9",
"P	c #EDEDED",
"Q	c #86AFE9",
"R	c #8DB3E9",
"S	c #9DADCE",
"T	c #AEBFEB",
"U	c #83ABE7",
"V	c #86AEE8",
"W	c #A4B1CC",
"X	c #FAFAFA",
"Y	c #7CA7E5",
"Z	c #88AEE8",
"[	c #879CCD",
"]	c #88A1E3",
"^	c #D3DBF3",
"_	c #A5BBEB",
"`	c #81A9E6",
"a	c #6A98DE",
"b	c #D4DDF3",
"c	c #EFF1F9",
"d	c #87A0E3",
"e	c #6996E0",
"f	c #D1D9F2",
"g	c #A0B4E8",
"h	c #6693DC",
"i	c #6E9BE2",
"j	c #6595E0",
"k	c #6190DE",
"l	c #A8B8E9",
"m	c #C5D0EF",
"n	c #C4CFEF",
"o	c #CBCBCB",
"p	c #E2E2E2",
"  #$%%%%%%%%&   ",
"  $'())))))'*&  ",
"  %(+,,,-.0)1*& ",
"  %)2322456)7+8&",
" 9:;<=>27?@))))%",
"ABCDEFG(',-H6I)%",
"JKL))MNO(',?.P)%",
"QRS)))TO)('74?)%",
"UVW)))))))X377)%",
"YZ[)))]^))(33')%",
"_`abcdef((XX'')%",
" ghijkl((XXXXX)%",
"  %mn)))(((((()%",
"  %))))))))))))%",
"  o3))))))))))3$",
"  po%%%%%%%%%%$p"};