/* XPM */ 
static char * page_white_h_xpm[] = {
"16 16 86 1",
" 	c None",
"!	c black",
"#	c #E3E3E3",
"$	c #CCCCCC",
"%	c #C9C9C9",
"&	c #DFDFDF",
"'	c #F8F8F8",
"(	c #FBFBFB",
")	c #FCFCFC",
"*	c #C2C2C2",
"+	c #F4F4F4",
",	c #F5F5F5",
"-	c #F1F1F1",
".	c #EFEFEF",
"0	c #E9E9E9",
"1	c #E7E7E7",
"2	c #F7F7F7",
"3	c #F9F9F9",
"4	c #F3F3F3",
"5	c #F0F0F0",
"6	c #EAEAEA",
"7	c #F6F6F6",
"8	c #C5C5C5",
"9	c #B0C0D1",
":	c #B8D5F4",
";	c #A0C6F0",
"<	c #DBE7F5",
"=	c #F2F2F2",
">	c #EBEBEB",
"?	c #AFBFD1",
"@	c #9DC4F0",
"A	c #A0C6F1",
"B	c #D1E2F6",
"C	c #ECECEC",
"D	c #E6E6E6",
"E	c #9CC4EF",
"F	c #AECBF0",
"G	c #ACC9EF",
"H	c #ABC7EF",
"I	c #EFF3F9",
"J	c #EDEDED",
"K	c #98C0EE",
"L	c #A3C7F0",
"M	c #94BEED",
"N	c #87B4EA",
"O	c #91BAEC",
"P	c #94B6EB",
"Q	c #92BBED",
"R	c #93BBED",
"S	c #C1D5F2",
"T	c #CCDCF4",
"U	c #86B1EA",
"V	c #82ADE7",
"W	c #FAFAFA",
"X	c #8EB7EB",
"Y	c #8CB6EB",
"Z	c #CCDBF4",
"[	c #CBDAF3",
"]	c #81AEE9",
"^	c #7FA8E7",
"_	c #A4C6F0",
"`	c #8CB8EB",
"a	c #9FB3D0",
"b	c #88B3E9",
"c	c #88B3EB",
"d	c #CAD8F3",
"e	c #7EABE8",
"f	c #7DA7E5",
"g	c #8EB8EB",
"h	c #7BA5D9",
"i	c #84AFE9",
"j	c #77A7E6",
"k	c #74A4E5",
"l	c #7BA9E6",
"m	c #79A8E6",
"n	c #ADC0EB",
"o	c #B7BECA",
"p	c #CAD9F3",
"q	c #CAD7F3",
"r	c #C9D6F2",
"s	c #C8D6F2",
"t	c #C8D5F2",
"u	c #C7D4F1",
"v	c #E1E8F6",
"w	c #CBCBCB",
"x	c #E2E2E2",
"  #$%%%%%%%%&   ",
"  $'())))))'*&  ",
"  %(+,,,-.0)1*& ",
"  %)2322456)7+8&",
"  9:;<327=>))))%",
"  ?@AB)(',-C6D)%",
"  %E;FGHI',=.J)%",
"  %KLMNOP('74=)%",
"  %QRSTUV)W377)%",
"  %XYZ[]^)(33')%",
"_`abc[def(WW'')%",
"RghUijklmnWWWW)%",
" Topqrstuv(((()%",
"  %))))))))))))%",
"  w3))))))))))3$",
"  xw%%%%%%%%%%$x"};