/* XPM */ 
static char * page_white_cplusplus_xpm[] = {
"16 16 92 1",
" 	c None",
"!	c black",
"#	c #E3E3E3",
"$	c #CCCCCC",
"%	c #C9C9C9",
"&	c #DFDFDF",
"'	c #F8F8F8",
"(	c #FBFBFB",
")	c #FCFCFC",
"*	c #C2C2C2",
"+	c #F4F4F4",
",	c #F5F5F5",
"-	c #F1F1F1",
".	c #EFEFEF",
"0	c #E9E9E9",
"1	c #E7E7E7",
"2	c #F7F7F7",
"3	c #F9F9F9",
"4	c #F3F3F3",
"5	c #F0F0F0",
"6	c #EAEAEA",
"7	c #F6F6F6",
"8	c #C5C5C5",
"9	c #E7EEF9",
":	c #8AA7D5",
";	c #8EB3E9",
"<	c #8EB3E8",
"=	c #A7BFEB",
">	c #C9D7F0",
"?	c #F2F2F2",
"@	c #EBEBEB",
"A	c #DCE7F8",
"B	c #8BB3EA",
"C	c #94B9EC",
"D	c #97B7EA",
"E	c #94B4E9",
"F	c #8BB1E8",
"G	c #89AAE7",
"H	c #ECECEC",
"I	c #E6E6E6",
"J	c #94B8EB",
"K	c #99BBEC",
"L	c #81A0D4",
"M	c #A4BAEA",
"N	c #77A2E4",
"O	c #EBEFF8",
"P	c #B1C8EC",
"Q	c #F1F2F4",
"R	c #ADC4E8",
"S	c #EDEDED",
"T	c #86AFE9",
"U	c #8DB3E9",
"V	c #9DADCE",
"W	c #AEBFEB",
"X	c #E8EDF8",
"Y	c #80A6E2",
"Z	c #F0F3F7",
"[	c #7FA6E1",
"]	c #83ABE7",
"^	c #86AEE8",
"_	c #A4B1CC",
"`	c #8FB1E5",
"a	c #78A1E0",
"b	c #D8E2F1",
"c	c #7CA7E5",
"d	c #88AEE8",
"e	c #879CCD",
"f	c #88A1E3",
"g	c #CED8F2",
"h	c #F3F6F9",
"i	c #80A6E1",
"j	c #A5BBEB",
"k	c #81A9E6",
"l	c #6A98DE",
"m	c #D4DDF3",
"n	c #EFF1F9",
"o	c #87A0E3",
"p	c #6996E0",
"q	c #CED7F1",
"r	c #F5F7F9",
"s	c #B1C8EB",
"t	c #A0B4E8",
"u	c #6693DC",
"v	c #6E9BE2",
"w	c #6595E0",
"x	c #6190DE",
"y	c #A8B8E9",
"z	c #FAFAFA",
"{	c #C5D0EF",
"|	c #C4CFEF",
"}	c #CBCBCB",
"~	c #E2E2E2",
"  #$%%%%%%%%&   ",
"  $'())))))'*&  ",
"  %(+,,,-.0)1*& ",
"  %)2322456)7+8&",
" 9:;<=>27?@))))%",
"ABCDEFG(',-H6I)%",
"JKL))MNOP'QR.S)%",
"TUV)))WXY(Z[4?)%",
"]^_)))`aaaaaab)%",
"cde)))fgY)hi3')%",
"jklmnopqP(rs'')%",
" tuvwxy((zzzzz)%",
"  %{|)))(((((()%",
"  %))))))))))))%",
"  }3))))))))))3$",
"  ~}%%%%%%%%%%$~"};