/* XPM */ 
static char * page_white_xpm[] = {
"16 16 31 1",
" 	c None",
"!	c black",
"#	c #E3E3E3",
"$	c #CCCCCC",
"%	c #C9C9C9",
"&	c #DFDFDF",
"'	c #F8F8F8",
"(	c #FBFBFB",
")	c #FCFCFC",
"*	c #C2C2C2",
"+	c #F4F4F4",
",	c #F5F5F5",
"-	c #F1F1F1",
".	c #EFEFEF",
"0	c #E9E9E9",
"1	c #E7E7E7",
"2	c #F7F7F7",
"3	c #F9F9F9",
"4	c #F3F3F3",
"5	c #F0F0F0",
"6	c #EAEAEA",
"7	c #F6F6F6",
"8	c #C5C5C5",
"9	c #F2F2F2",
":	c #EBEBEB",
";	c #ECECEC",
"<	c #E6E6E6",
"=	c #EDEDED",
">	c #FAFAFA",
"?	c #CBCBCB",
"@	c #E2E2E2",
" #$%%%%%%%%&    ",
" $'())))))'*&   ",
" %(+,,,-.0)1*&  ",
" %)2322456)7+8& ",
" %))))279:))))% ",
" %))))(',-;6<)% ",
" %))))))',9.=)% ",
" %))))))('749)% ",
" %)))))))>377)% ",
" %)))))))(33')% ",
" %)))))((>>'')% ",
" %)))))(>>>>>)% ",
" %)))))(((((()% ",
" %))))))))))))% ",
" ?3))))))))))3$ ",
" @?%%%%%%%%%%$@ "};