/* XPM */ 
static char * tutorial_xpm[] = {
"16 16 147 2",
"  	c None",
"! 	c black",
"# 	c #DCCCAC",
"$ 	c #B99650",
"% 	c #B99041",
"& 	c #B28B40",
"' 	c #C2AF89",
"( 	c #EDEDED",
") 	c #FBFBFB",
"* 	c #E3D7BD",
"+ 	c #B28123",
", 	c #E4C084",
"- 	c #E8CA97",
". 	c #E3C289",
"0 	c #B8882C",
"1 	c #A69063",
"2 	c #E0E0E0",
"3 	c #FAFAFA",
"4 	c #AF893E",
"5 	c #BF8D31",
"6 	c #D5A652",
"7 	c #DBB675",
"8 	c #C6A35F",
"9 	c #B48C3B",
": 	c #9E7015",
"; 	c #ACACAC",
"< 	c #EAEAEA",
"= 	c #BF8620",
"> 	c #D19833",
"? 	c #C5912E",
"@ 	c #DFA33D",
"A 	c #F9B24C",
"B 	c #F2AB45",
"C 	c #B48021",
"D 	c #808080",
"E 	c #D8D8D8",
"F 	c #CC8D27",
"G 	c #FFB650",
"H 	c #FFB953",
"I 	c #FFB751",
"J 	c #FFB34D",
"K 	c #CC8A24",
"L 	c #717171",
"M 	c #D1D1D1",
"N 	c #CC8822",
"O 	c #FFAD47",
"P 	c #FFB04A",
"Q 	c #FFAE48",
"R 	c #FFA842",
"S 	c #BA7C1D",
"T 	c #C38525",
"U 	c #FFA43E",
"V 	c #FFA640",
"W 	c #F99C36",
"X 	c #7F5D1E",
"Y 	c #7C7C7C",
"Z 	c #D6D6D6",
"[ 	c #B89E6B",
"] 	c #EC8F29",
"^ 	c #FF9933",
"_ 	c #FD9832",
"` 	c #C27B15",
"a 	c #5C5649",
"b 	c #989898",
"c 	c #E4E4E4",
"d 	c #9DC39D",
"e 	c #4E9245",
"f 	c #836903",
"g 	c #C67D17",
"h 	c #AF710B",
"i 	c #4E5B15",
"j 	c #6D6D6D",
"k 	c #BFBFBF",
"l 	c #F5F5F5",
"m 	c #7CAF7C",
"n 	c #40A640",
"o 	c #99E599",
"p 	c #6EAA80",
"q 	c #CFCDBF",
"r 	c #C1B99F",
"s 	c #438639",
"t 	c #43A743",
"u 	c #2B712B",
"v 	c #C4C4C4",
"w 	c #F6F6F6",
"x 	c #3A953A",
"y 	c #66CC66",
"z 	c #83DA83",
"{ 	c #5E9F60",
"| 	c #F9FFFF",
"} 	c #8EBC8F",
"~ 	c #5CB75C",
" !	c #43AE43",
"!!	c #4A7D4A",
"#!	c #D7D7D7",
"$!	c #F9F9F9",
"%!	c #1A891A",
"&!	c #5CC75C",
"'!	c #3A943D",
"(!	c #CCECDF",
")!	c #3F9E40",
"*!	c #69CE69",
"+!	c #63CA63",
",!	c #39B639",
"-!	c #1B741B",
".!	c #A8A8A8",
"0!	c #619C61",
"1!	c #239823",
"2!	c #56C156",
"3!	c #399F39",
"4!	c #228026",
"5!	c #60C660",
"6!	c #60C960",
"7!	c #3DB83D",
"8!	c #33B333",
"9!	c #188218",
":!	c #868686",
";!	c #DBDBDB",
"<!	c #E6E6E6",
"=!	c #889B88",
">!	c #386C38",
"?!	c #206E20",
"@!	c #216D21",
"A!	c #208C20",
"B!	c #1A8D1A",
"C!	c #178117",
"D!	c #1E711E",
"E!	c #2D592D",
"F!	c #888888",
"G!	c #DADADA",
"H!	c #E2E2E2",
"I!	c #C0C0C0",
"J!	c #A1A1A1",
"K!	c #8E8E8E",
"L!	c #828282",
"M!	c #767676",
"N!	c #797979",
"O!	c #8C8C8C",
"P!	c #B6B6B6",
"Q!	c #FDFDFD",
"R!	c #E9E9E9",
"S!	c #DFDFDF",
"T!	c #D9D9D9",
"U!	c #D3D3D3",
"V!	c #D4D4D4",
"W!	c #DDDDDD",
"X!	c #ECECEC",
"          # $ % & ' ( )         ",
"        * + , - . 0 1 2 3       ",
"        4 5 6 7 8 9 : ; <       ",
"        = > ? @ A B C D E       ",
"        F G H H I J K L M       ",
"        N O P P Q R S L M       ",
"        T U V V U W X Y Z       ",
"        [ ] ^ ^ _ ` a b c       ",
"      d e f ` g h i j k l       ",
"    m n o p q r s t u v w       ",
"    x y z { | } ~ y  !!!#!$!    ",
"    %!&!y '!(!)!*!+!,!-!.!<     ",
"    0!1!2!3!4!5!6!7!8!9!:!;!    ",
"    <!=!>!?!@!A!B!C!D!E!F!G!    ",
"    $!H!I!J!K!L!M!L N!O!P!<     ",
"      Q!l R!S!T!U!M V!W!X!3     "};