/* XPM */ 
static char * web_xpm[] = {
"16 16 157 2",
"  	c None",
"! 	c black",
"# 	c #E2E7EF",
"$ 	c #BAC5D9",
"% 	c #99A8C6",
"& 	c #8599BB",
"' 	c #8B9DBD",
"( 	c #97A7C5",
") 	c #B5C0D4",
"* 	c #E0E5ED",
"+ 	c #C7D0E0",
", 	c #90A2C0",
"- 	c #A2C2C3",
". 	c #BBDCCD",
"0 	c #B6E4B7",
"1 	c #A2DD81",
"2 	c #70B667",
"3 	c #56859F",
"4 	c #7C8EB0",
"5 	c #C1CADA",
"6 	c #8AA5B9",
"7 	c #ADD5B5",
"8 	c #CEF2D4",
"9 	c #D7F8E6",
": 	c #75B086",
"; 	c #90DB7D",
"< 	c #6AB14E",
"= 	c #42878B",
"> 	c #5B85C8",
"? 	c #617FA2",
"@ 	c #BFC8D7",
"A 	c #8EA1BE",
"B 	c #99CB92",
"C 	c #B7E8A1",
"D 	c #C0EECB",
"E 	c #CDF4D5",
"F 	c #D7F7EB",
"G 	c #ABE5B3",
"H 	c #679887",
"I 	c #4798D6",
"J 	c #3993B0",
"K 	c #3A9665",
"L 	c #7087A0",
"M 	c #DEE2EA",
"N 	c #B9C4D8",
"O 	c #83A2B6",
"P 	c #98CF8B",
"Q 	c #96DD77",
"R 	c #A1E293",
"S 	c #A2E487",
"T 	c #97D2A2",
"U 	c #6BA6AB",
"V 	c #6999ED",
"W 	c #5B8DE0",
"X 	c #2EA753",
"Y 	c #29A54C",
"Z 	c #40846F",
"[ 	c #ABB6C8",
"] 	c #95A6C4",
"^ 	c #99B4E1",
"_ 	c #85B690",
"` 	c #6CC94F",
"a 	c #71CB4D",
"b 	c #73A179",
"c 	c #6EA2B9",
"d 	c #6899D2",
"e 	c #648FE4",
"f 	c #3C96A5",
"g 	c #2BA54D",
"h 	c #239F43",
"i 	c #2C8A52",
"j 	c #7D8EA8",
"k 	c #7A8FB6",
"l 	c #9BBAF8",
"m 	c #809B9B",
"n 	c #4EA747",
"o 	c #4BB65A",
"p 	c #5E9591",
"q 	c #6E97E5",
"r 	c #6691E6",
"s 	c #5C89DC",
"t 	c #2BA164",
"u 	c #249D3F",
"v 	c #1D9640",
"w 	c #1F8845",
"x 	c #5A6F8E",
"y 	c #788DB3",
"z 	c #92B4F7",
"{ 	c #7BA4EB",
"| 	c #5F7965",
"} 	c #4C9B63",
"~ 	c #40AF60",
" !	c #3EA296",
"!!	c #5D89DF",
"#!	c #5480D4",
"$!	c #486E51",
"%!	c #2C843B",
"&!	c #158D2B",
"'!	c #1C7D3C",
"(!	c #576A88",
")!	c #90A1C0",
"*!	c #7196DE",
"+!	c #6E9CF9",
",!	c #6992DD",
"-!	c #527A6E",
".!	c #38A455",
"0!	c #30A64F",
"1!	c #2D9580",
"2!	c #4C7ACD",
"3!	c #3F6D6D",
"4!	c #42654B",
"5!	c #167B31",
"6!	c #336A62",
"7!	c #73839A",
"8!	c #B4C0D4",
"9!	c #6B88C1",
":!	c #6494F5",
";!	c #6190EE",
"<!	c #5A84C5",
"=!	c #3F7E54",
">!	c #249B3B",
"?!	c #288B3C",
"@!	c #3C6C6D",
"A!	c #426BB4",
"B!	c #3C6087",
"C!	c #3E5F5D",
"D!	c #445961",
"E!	c #A0AAB9",
"F!	c #6286CE",
"G!	c #5989E8",
"H!	c #4781CB",
"I!	c #1F8B5D",
"J!	c #228834",
"K!	c #37675A",
"L!	c #41646F",
"M!	c #3D67B6",
"N!	c #3A62B5",
"O!	c #38568B",
"P!	c #596981",
"Q!	c #D7DCE1",
"R!	c #657DA6",
"S!	c #587EC5",
"T!	c #2E7487",
"U!	c #24745C",
"V!	c #3E6153",
"W!	c #3C6288",
"X!	c #3D66BB",
"Y!	c #3B63B6",
"Z!	c #41546F",
"[!	c #B0B8C3",
"]!	c #7285A5",
"^!	c #497092",
"_!	c #45656B",
"`!	c #446693",
"a!	c #3E66B2",
"b!	c #3D5D96",
"c!	c #3B5379",
"                                ",
"        # $ % & ' ( ) *         ",
"      + , - . 0 1 2 3 4 5       ",
"    + 6 7 8 9 : ; < = > ? @     ",
"  # A B C D E F G H I J K L M   ",
"  N O P Q R S T U V W X Y Z [   ",
"  ] ^ _ ` a b c d e f g h i j   ",
"  k l m n o p q r s t u v w x   ",
"  y z { | } ~  !!!#!$!%!&!'!(!  ",
"  )!*!+!,!-!.!0!1!2!3!4!5!6!7!  ",
"  8!9!:!;!<!=!>!?!@!A!B!C!D!E!  ",
"  * 4 F!G!H!I!J!K!L!M!N!O!P!Q!  ",
"    5 R!S!T!U!V!W!X!Y!O!Z![!    ",
"      @ ]!^!_!`!a!b!c!P![!      ",
"        M [ j x (!7!E!Q!        ",
"                                "};
